0
SECTION
2
HEADER
9
$INSUNITS
70
4
9
$ACADVER
1
AC1014
9
$HANDSEED
5
FFFF
0
ENDSEC
0
SECTION
2
TABLES
0
TABLE
2
VPORT
5
8
100
AcDbSymbolTable
0
ENDTAB
0
TABLE
2
LTYPE
5
5
100
AcDbSymbolTable
0
LTYPE
5
14
100
AcDbSymbolTableRecord
100
AcDbLinetypeTableRecord
2
BYBLOCK
70
0
0
LTYPE
5
15
100
AcDbSymbolTableRecord
100
AcDbLinetypeTableRecord
2
BYLAYER
70
0
0
ENDTAB
0
TABLE
2
LAYER
5
2
100
AcDbSymbolTable
70
2
0
LAYER
5
50
100
AcDbSymbolTableRecord
100
AcDbLayerTableRecord
2
0
70
0
6
CONTINUOUS
0
ENDTAB
0
TABLE
2
STYLE
5
3
100
AcDbSymbolTable
70
1
0
STYLE
5
11
100
AcDbSymbolTableRecord
100
AcDbTextStyleTableRecord
2
STANDARD
70
0
0
ENDTAB
0
TABLE
2
VIEW
5
6
100
AcDbSymbolTable
70
0
0
ENDTAB
0
TABLE
2
UCS
5
7
100
AcDbSymbolTable
70
0
0
ENDTAB
0
TABLE
2
APPID
5
9
100
AcDbSymbolTable
70
2
0
APPID
5
12
100
AcDbSymbolTableRecord
100
AcDbRegAppTableRecord
2
ACAD
70
0
0
ENDTAB
0
TABLE
2
DIMSTYLE
5
A
100
AcDbSymbolTable
70
1
0
ENDTAB
0
TABLE
2
BLOCK_RECORD
5
1
100
AcDbSymbolTable
70
1
0
BLOCK_RECORD
5
1F
100
AcDbSymbolTableRecord
100
AcDbBlockTableRecord
2
*MODEL_SPACE
0
BLOCK_RECORD
5
1B
100
AcDbSymbolTableRecord
100
AcDbBlockTableRecord
2
*PAPER_SPACE
0
ENDTAB
0
ENDSEC
0
SECTION
2
BLOCKS
0
BLOCK
5
20
100
AcDbEntity
100
AcDbBlockBegin
2
*MODEL_SPACE
0
ENDBLK
5
21
100
AcDbEntity
100
AcDbBlockEnd
0
BLOCK
5
1C
100
AcDbEntity
100
AcDbBlockBegin
2
*PAPER_SPACE
0
ENDBLK
5
1D
100
AcDbEntity
100
AcDbBlockEnd
0
ENDSEC
0
SECTION
2
ENTITIES
0
LWPOLYLINE
5
100
100
AcDbEntity
8
0
100
AcDbPolyline
90
16
70
1
43
0.0
10
4.7499999999983986
20
8.227241335953078
42
0.26794919243107074
10
-4.7500000000000071
20
8.2272413359521508
10
-9.0000000000000178
20
15.588457268119882
42
0.13165249758739569
10
-15.588457268119916
20
8.9999999999999751
10
-8.227241335952165
20
4.7499999999999813
42
0.26794919243107063
10
-8.2272413359530887
20
-4.7499999999984137
10
-15.588457268122426
20
-8.9999999999974349
42
0.13165249758749487
10
-8.9999999999974243
20
-15.588457268122436
10
-4.7499999999984075
20
-8.2272413359531011
42
0.26794919243107096
10
4.7500000000000009
20
-8.2272413359521774
10
9.0000000000000018
20
-15.588457268119914
42
0.13165249758739614
10
15.588457268119907
20
-9.0000000000000036
10
8.2272413359521757
20
-4.7500000000000036
42
0.26794919243107052
10
8.2272413359530816
20
4.7499999999983968
10
15.588457268122426
20
8.9999999999974314
42
0.13165249758749442
10
8.9999999999974261
20
15.588457268122422
0
CIRCLE
5
101
100
AcDbEntity
8
0
100
AcDbCircle
10
10.999999999999998
20
10.999999999999998
30
0
40
1.1000000000000001
210
0
220
0
230
1
0
CIRCLE
5
102
100
AcDbEntity
8
0
100
AcDbCircle
10
10.999999999999998
20
-10.999999999999998
30
0
40
1.1000000000000001
210
0
220
0
230
1
0
CIRCLE
5
103
100
AcDbEntity
8
0
100
AcDbCircle
10
-10.999999999999998
20
10.999999999999998
30
0
40
1.1000000000000001
210
0
220
0
230
1
0
CIRCLE
5
104
100
AcDbEntity
8
0
100
AcDbCircle
10
-10.999999999999998
20
-10.999999999999998
30
0
40
1.1000000000000001
210
0
220
0
230
1
0
LWPOLYLINE
5
105
100
AcDbEntity
8
0
100
AcDbPolyline
90
16
70
1
43
0.0
10
50.58845726811991
20
-9.0000000000000036
10
43.227241335952172
20
-4.7500000000000036
42
0.26794919243107052
10
43.227241335953082
20
4.7499999999983968
10
50.588457268122433
20
8.9999999999974314
42
0.13165249758749442
10
43.999999999997428
20
15.588457268122422
10
39.749999999998394
20
8.227241335953078
42
0.26794919243107074
10
30.249999999999993
20
8.2272413359521508
10
25.999999999999986
20
15.588457268119884
42
0.13165249758739569
10
19.411542731880086
20
8.9999999999999751
10
26.772758664047835
20
4.749999999999984
42
0.26794919243107063
10
26.772758664046911
20
-4.7499999999984137
10
19.411542731877578
20
-8.9999999999974314
42
0.13165249758749487
10
26.000000000002576
20
-15.588457268122436
10
30.250000000001592
20
-8.2272413359531029
42
0.26794919243107096
10
39.75
20
-8.2272413359521774
10
44
20
-15.588457268119916
42
0.13165249758739625
0
CIRCLE
5
106
100
AcDbEntity
8
0
100
AcDbCircle
10
24.000000000000004
20
-10.999999999999998
30
0
40
1.1000000000000001
210
0
220
0
230
1
0
CIRCLE
5
107
100
AcDbEntity
8
0
100
AcDbCircle
10
24.000000000000004
20
10.999999999999998
30
0
40
1.1000000000000001
210
0
220
0
230
1
0
CIRCLE
5
108
100
AcDbEntity
8
0
100
AcDbCircle
10
46
20
10.999999999999998
30
0
40
1.1000000000000001
210
0
220
0
230
1
0
CIRCLE
5
109
100
AcDbEntity
8
0
100
AcDbCircle
10
46
20
-10.999999999999998
30
0
40
1.1000000000000001
210
0
220
0
230
1
0
LWPOLYLINE
5
110
100
AcDbEntity
8
0
100
AcDbPolyline
90
16
70
1
43
0.0
10
85.588457268119896
20
-9.0000000000000036
10
78.227241335952172
20
-4.7500000000000044
42
0.26794919243107063
10
78.227241335953082
20
4.7499999999983968
10
85.588457268122426
20
8.9999999999974314
42
0.13165249758749442
10
78.999999999997428
20
15.588457268122422
10
74.749999999998408
20
8.227241335953078
42
0.26794919243107074
10
65.25
20
8.2272413359521508
10
60.999999999999979
20
15.588457268119884
42
0.13165249758739569
10
54.411542731880083
20
8.9999999999999751
10
61.772758664047835
20
4.7499999999999822
42
0.26794919243107052
10
61.772758664046911
20
-4.7499999999984137
10
54.411542731877574
20
-8.9999999999974385
42
0.13165249758749475
10
61.000000000002572
20
-15.588457268122436
10
65.250000000001606
20
-8.2272413359530994
42
0.26794919243107085
10
74.75
20
-8.2272413359521774
10
79
20
-15.588457268119914
42
0.13165249758739625
0
CIRCLE
5
111
100
AcDbEntity
8
0
100
AcDbCircle
10
59
20
-10.999999999999998
30
0
40
1.1000000000000001
210
0
220
0
230
1
0
CIRCLE
5
112
100
AcDbEntity
8
0
100
AcDbCircle
10
59
20
10.999999999999998
30
0
40
1.1000000000000001
210
0
220
0
230
1
0
CIRCLE
5
113
100
AcDbEntity
8
0
100
AcDbCircle
10
81
20
10.999999999999998
30
0
40
1.1000000000000001
210
0
220
0
230
1
0
CIRCLE
5
114
100
AcDbEntity
8
0
100
AcDbCircle
10
81
20
-10.999999999999998
30
0
40
1.1000000000000001
210
0
220
0
230
1
0
LWPOLYLINE
5
115
100
AcDbEntity
8
0
100
AcDbPolyline
90
16
70
1
43
0.0
10
15.588457268119907
20
25.999999999999996
10
8.2272413359521757
20
30.249999999999993
42
0.26794919243107052
10
8.2272413359530816
20
39.749999999998394
10
15.588457268122433
20
43.999999999997421
42
0.13165249758749464
10
8.9999999999974261
20
50.588457268122426
10
4.7499999999983968
20
43.227241335953082
42
0.26794919243107063
10
-4.7500000000000071
20
43.227241335952151
10
-9.0000000000000142
20
50.588457268119882
42
0.13165249758739569
10
-15.588457268119916
20
43.999999999999979
10
-8.2272413359521721
20
39.749999999999986
42
0.26794919243107063
10
-8.2272413359530887
20
30.250000000001585
10
-15.588457268122429
20
26.000000000002569
42
0.13165249758749487
10
-8.9999999999974243
20
19.411542731877564
10
-4.7499999999984093
20
26.772758664046901
42
0.26794919243107107
10
4.7500000000000009
20
26.772758664047824
10
8.9999999999999893
20
19.411542731880079
42
0.13165249758739639
0
CIRCLE
5
116
100
AcDbEntity
8
0
100
AcDbCircle
10
-10.999999999999998
20
24.000000000000004
30
0
40
1.1000000000000001
210
0
220
0
230
1
0
CIRCLE
5
117
100
AcDbEntity
8
0
100
AcDbCircle
10
-10.999999999999998
20
46
30
0
40
1.1000000000000001
210
0
220
0
230
1
0
CIRCLE
5
118
100
AcDbEntity
8
0
100
AcDbCircle
10
10.999999999999998
20
46
30
0
40
1.1000000000000001
210
0
220
0
230
1
0
CIRCLE
5
119
100
AcDbEntity
8
0
100
AcDbCircle
10
10.999999999999998
20
24.000000000000004
30
0
40
1.1000000000000001
210
0
220
0
230
1
0
LWPOLYLINE
5
120
100
AcDbEntity
8
0
100
AcDbPolyline
90
16
70
1
43
0.0
10
50.58845726811991
20
25.999999999999996
10
43.227241335952172
20
30.249999999999993
42
0.26794919243107052
10
43.227241335953082
20
39.749999999998394
10
50.588457268122433
20
43.999999999997435
42
0.13165249758749442
10
43.999999999997428
20
50.588457268122426
10
39.749999999998394
20
43.227241335953074
42
0.26794919243107052
10
30.249999999999993
20
43.227241335952151
10
25.999999999999986
20
50.588457268119882
42
0.13165249758739569
10
19.411542731880086
20
43.999999999999979
10
26.772758664047828
20
39.749999999999986
42
0.26794919243107063
10
26.772758664046911
20
30.250000000001585
10
19.411542731877574
20
26.000000000002569
42
0.13165249758749487
10
26.000000000002576
20
19.411542731877564
10
30.250000000001592
20
26.772758664046897
42
0.26794919243107096
10
39.75
20
26.772758664047824
10
43.999999999999993
20
19.411542731880079
42
0.13165249758739639
0
CIRCLE
5
121
100
AcDbEntity
8
0
100
AcDbCircle
10
24.000000000000004
20
24.000000000000004
30
0
40
1.1000000000000001
210
0
220
0
230
1
0
CIRCLE
5
122
100
AcDbEntity
8
0
100
AcDbCircle
10
24.000000000000004
20
46
30
0
40
1.1000000000000001
210
0
220
0
230
1
0
CIRCLE
5
123
100
AcDbEntity
8
0
100
AcDbCircle
10
46
20
46
30
0
40
1.1000000000000001
210
0
220
0
230
1
0
CIRCLE
5
124
100
AcDbEntity
8
0
100
AcDbCircle
10
46
20
24.000000000000004
30
0
40
1.1000000000000001
210
0
220
0
230
1
0
LWPOLYLINE
5
125
100
AcDbEntity
8
0
100
AcDbPolyline
90
16
70
1
43
0.0
10
85.588457268119896
20
25.999999999999996
10
78.227241335952172
20
30.249999999999993
42
0.26794919243107063
10
78.227241335953082
20
39.749999999998394
10
85.588457268122426
20
43.999999999997435
42
0.13165249758749442
10
78.999999999997428
20
50.588457268122426
10
74.749999999998394
20
43.227241335953074
42
0.26794919243107052
10
65.25
20
43.227241335952151
10
60.999999999999979
20
50.588457268119882
42
0.13165249758739569
10
54.411542731880083
20
43.999999999999979
10
61.772758664047828
20
39.749999999999986
42
0.26794919243107052
10
61.772758664046911
20
30.250000000001585
10
54.411542731877567
20
26.000000000002572
42
0.13165249758749487
10
61.000000000002572
20
19.411542731877564
10
65.250000000001592
20
26.772758664046904
42
0.26794919243107096
10
74.75
20
26.772758664047824
10
79
20
19.411542731880086
42
0.13165249758739625
0
CIRCLE
5
126
100
AcDbEntity
8
0
100
AcDbCircle
10
59
20
24.000000000000004
30
0
40
1.1000000000000001
210
0
220
0
230
1
0
CIRCLE
5
127
100
AcDbEntity
8
0
100
AcDbCircle
10
59
20
46
30
0
40
1.1000000000000001
210
0
220
0
230
1
0
CIRCLE
5
128
100
AcDbEntity
8
0
100
AcDbCircle
10
81
20
46
30
0
40
1.1000000000000001
210
0
220
0
230
1
0
CIRCLE
5
129
100
AcDbEntity
8
0
100
AcDbCircle
10
81
20
24.000000000000004
30
0
40
1.1000000000000001
210
0
220
0
230
1
0
LWPOLYLINE
5
130
100
AcDbEntity
8
0
100
AcDbPolyline
90
16
70
1
43
0.0
10
15.588457268119907
20
61
10
8.2272413359521739
20
65.25
42
0.26794919243107063
10
8.2272413359530816
20
74.749999999998394
10
15.588457268122433
20
78.999999999997414
42
0.13165249758749464
10
8.9999999999974261
20
85.588457268122426
10
4.7499999999983968
20
78.227241335953067
42
0.26794919243107063
10
-4.7500000000000071
20
78.227241335952144
10
-9.0000000000000107
20
85.588457268119882
42
0.13165249758739581
10
-15.588457268119916
20
78.999999999999972
10
-8.2272413359521686
20
74.749999999999972
42
0.26794919243107052
10
-8.2272413359530887
20
65.250000000001592
10
-15.588457268122431
20
61.000000000002565
42
0.13165249758749487
10
-8.9999999999974243
20
54.41154273187756
10
-4.7499999999984093
20
61.77275866404689
42
0.26794919243107107
10
4.7500000000000009
20
61.772758664047828
10
8.9999999999999893
20
54.411542731880083
42
0.13165249758739639
0
CIRCLE
5
131
100
AcDbEntity
8
0
100
AcDbCircle
10
-10.999999999999998
20
59
30
0
40
1.1000000000000001
210
0
220
0
230
1
0
CIRCLE
5
132
100
AcDbEntity
8
0
100
AcDbCircle
10
-10.999999999999998
20
81
30
0
40
1.1000000000000001
210
0
220
0
230
1
0
CIRCLE
5
133
100
AcDbEntity
8
0
100
AcDbCircle
10
10.999999999999998
20
81
30
0
40
1.1000000000000001
210
0
220
0
230
1
0
CIRCLE
5
134
100
AcDbEntity
8
0
100
AcDbCircle
10
10.999999999999998
20
59
30
0
40
1.1000000000000001
210
0
220
0
230
1
0
LWPOLYLINE
5
135
100
AcDbEntity
8
0
100
AcDbPolyline
90
16
70
1
43
0.0
10
50.58845726811991
20
61
10
43.227241335952172
20
65.25
42
0.26794919243107052
10
43.227241335953082
20
74.749999999998394
10
50.588457268122433
20
78.999999999997428
42
0.13165249758749442
10
43.999999999997428
20
85.588457268122426
10
39.749999999998394
20
78.227241335953082
42
0.26794919243107052
10
30.249999999999993
20
78.227241335952144
10
25.999999999999986
20
85.588457268119882
42
0.13165249758739569
10
19.411542731880086
20
78.999999999999972
10
26.772758664047835
20
74.749999999999972
42
0.26794919243107063
10
26.772758664046911
20
65.250000000001592
10
19.411542731877574
20
61.000000000002565
42
0.13165249758749487
10
26.000000000002576
20
54.41154273187756
10
30.250000000001592
20
61.772758664046904
42
0.26794919243107096
10
39.75
20
61.772758664047828
10
43.999999999999993
20
54.411542731880083
42
0.13165249758739625
0
CIRCLE
5
136
100
AcDbEntity
8
0
100
AcDbCircle
10
24.000000000000004
20
59
30
0
40
1.1000000000000001
210
0
220
0
230
1
0
CIRCLE
5
137
100
AcDbEntity
8
0
100
AcDbCircle
10
24.000000000000004
20
81
30
0
40
1.1000000000000001
210
0
220
0
230
1
0
CIRCLE
5
138
100
AcDbEntity
8
0
100
AcDbCircle
10
46
20
81
30
0
40
1.1000000000000001
210
0
220
0
230
1
0
CIRCLE
5
139
100
AcDbEntity
8
0
100
AcDbCircle
10
46
20
59
30
0
40
1.1000000000000001
210
0
220
0
230
1
0
LWPOLYLINE
5
140
100
AcDbEntity
8
0
100
AcDbPolyline
90
16
70
1
43
0.0
10
85.588457268119896
20
61
10
78.227241335952172
20
65.25
42
0.26794919243107074
10
78.227241335953082
20
74.749999999998394
10
85.588457268122426
20
78.999999999997428
42
0.13165249758749442
10
78.999999999997428
20
85.588457268122426
10
74.749999999998394
20
78.227241335953082
42
0.26794919243107052
10
65.25
20
78.227241335952144
10
60.999999999999979
20
85.588457268119882
42
0.13165249758739569
10
54.411542731880083
20
78.999999999999972
10
61.772758664047835
20
74.749999999999972
42
0.26794919243107052
10
61.772758664046911
20
65.250000000001592
10
54.411542731877574
20
61.000000000002558
42
0.13165249758749475
10
61.000000000002572
20
54.41154273187756
10
65.250000000001592
20
61.772758664046904
42
0.26794919243107096
10
74.75
20
61.772758664047828
10
79
20
54.41154273188009
42
0.13165249758739614
0
CIRCLE
5
141
100
AcDbEntity
8
0
100
AcDbCircle
10
59
20
59
30
0
40
1.1000000000000001
210
0
220
0
230
1
0
CIRCLE
5
142
100
AcDbEntity
8
0
100
AcDbCircle
10
59
20
81
30
0
40
1.1000000000000001
210
0
220
0
230
1
0
CIRCLE
5
143
100
AcDbEntity
8
0
100
AcDbCircle
10
81
20
81
30
0
40
1.1000000000000001
210
0
220
0
230
1
0
CIRCLE
5
144
100
AcDbEntity
8
0
100
AcDbCircle
10
81
20
59
30
0
40
1.1000000000000001
210
0
220
0
230
1
0
ENDSEC
0
SECTION
2
OBJECTS
0
DICTIONARY
5
C
100
AcDbDictionary
3
ACAD_GROUP
350
D
3
ACAD_MLINESTYLE
350
17
0
DICTIONARY
5
D
100
AcDbDictionary
0
DICTIONARY
5
1A
330
C
100
AcDbDictionary
0
DICTIONARY
5
17
100
AcDbDictionary
0
ENDSEC
0
EOF
